<svg width="41" height="17" viewBox="0 0 41 17" fill="none" xmlns="http://www.w3.org/2000/svg">
<path fill-rule="evenodd" clip-rule="evenodd" d="M8.16142 2.26206C7.69442 2.82144 6.94723 3.26264 6.20004 3.19961C6.10664 2.44327 6.47245 1.63965 6.90053 1.14329C7.36752 0.568156 8.18477 0.158468 8.84634 0.126953C8.92417 0.914815 8.62063 1.68692 8.16142 2.26206ZM8.8385 3.34944C8.18024 3.31109 7.5796 3.54984 7.09445 3.74267C6.78225 3.86677 6.51787 3.97185 6.31673 3.97185C6.09101 3.97185 5.81571 3.86115 5.50662 3.73685C5.10161 3.57398 4.63856 3.38778 4.15298 3.39672C3.03998 3.41247 2.0048 4.05064 1.43663 5.06698C0.269139 7.09966 1.13308 10.1093 2.26165 11.7638C2.81426 12.5832 3.47584 13.4813 4.34756 13.4498C4.73107 13.4352 5.00694 13.3167 5.29244 13.194C5.62113 13.0529 5.96259 12.9062 6.49574 12.9062C7.01041 12.9062 7.33693 13.049 7.65037 13.1862C7.9484 13.3165 8.23461 13.4417 8.65949 13.4341C9.56234 13.4183 10.1305 12.6147 10.6831 11.7953C11.2795 10.9159 11.5416 10.0577 11.5813 9.92739L11.586 9.91232C11.585 9.91136 11.5777 9.90794 11.5647 9.90192C11.3653 9.80953 9.84159 9.10343 9.82697 7.20996C9.8123 5.62067 11.0356 4.81544 11.2281 4.68868L11.2282 4.68865C11.2399 4.68095 11.2477 4.67576 11.2513 4.67305C10.473 3.50702 9.2588 3.38096 8.8385 3.34944ZM15.0885 13.3472V1.06446H19.6417C21.9923 1.06446 23.6345 2.70321 23.6345 5.0983C23.6345 7.4934 21.9611 9.14791 19.5794 9.14791H16.9721V13.3472H15.0885ZM16.9719 2.67187H19.1434C20.7779 2.67187 21.7119 3.55427 21.7119 5.10635C21.7119 6.65844 20.7779 7.54872 19.1356 7.54872H16.9719V2.67187ZM29.8534 11.8739C29.3553 12.8351 28.2579 13.4417 27.0748 13.4417C25.3236 13.4417 24.1016 12.386 24.1016 10.7945C24.1016 9.21881 25.2847 8.31277 27.4717 8.17883L29.8223 8.03702V7.35946C29.8223 6.35888 29.1763 5.81525 28.0244 5.81525C27.0748 5.81525 26.3821 6.31161 26.242 7.06795H24.5452C24.5997 5.47647 26.0785 4.31832 28.0788 4.31832C30.2348 4.31832 31.6358 5.46072 31.6358 7.2334V13.3472H29.8923V11.8739H29.8534ZM27.5806 11.9844C26.5765 11.9844 25.9383 11.4959 25.9383 10.7475C25.9383 9.97537 26.5532 9.52629 27.7285 9.45539L29.8222 9.32145V10.0148C29.8222 11.165 28.857 11.9844 27.5806 11.9844ZM37.4187 13.8278C36.6637 15.9787 35.7998 16.6878 33.9629 16.6878C33.8228 16.6878 33.3558 16.672 33.2469 16.6405V15.1672C33.3636 15.183 33.6516 15.1987 33.7995 15.1987C34.6323 15.1987 35.0993 14.8442 35.3873 13.9224L35.5585 13.3788L32.3674 4.43654H34.3365L36.5548 11.6927H36.5937L38.8119 4.43654H40.7266L37.4187 13.8278Z" fill="black"/>
</svg>
