<svg width="75" height="16" viewBox="0 0 75 16" fill="none" xmlns="http://www.w3.org/2000/svg">
<path d="M15.4237 9.93671C14.3779 14.2224 10.1292 16.8306 5.9338 15.7619C1.74017 14.6934 -0.812773 10.3525 0.233557 6.06702C1.27891 1.78083 5.52761 -0.827623 9.72174 0.24086C13.9168 1.30934 16.4695 5.65077 15.4237 9.93671Z" fill="#FCA014"/>
<path d="M11.2812 6.86114C11.4371 5.79666 10.6437 5.22442 9.559 4.84267L9.91087 3.40069L9.05174 3.18195L8.70917 4.58592C8.48331 4.52843 8.25133 4.47418 8.02083 4.42043L8.36585 3.0072L7.5072 2.78845L7.15508 4.22993C6.96813 4.18643 6.78461 4.14343 6.60647 4.09819L6.60745 4.09368L5.42262 3.79143L5.19408 4.72892C5.19408 4.72892 5.83151 4.87817 5.81806 4.88742C6.16602 4.97617 6.2289 5.21141 6.21838 5.39791L5.81756 7.04064C5.84154 7.04689 5.87262 7.05589 5.90688 7.06989C5.87825 7.06264 5.84767 7.05463 5.8161 7.04689L5.25427 9.3481C5.21169 9.4561 5.10378 9.61809 4.86055 9.5566C4.86912 9.56935 4.23608 9.39735 4.23608 9.39735L3.80957 10.4021L4.9276 10.6868C5.13559 10.7401 5.33942 10.7958 5.54007 10.8483L5.18453 12.3068L6.04269 12.5256L6.39481 11.0826C6.62923 11.1476 6.8568 11.2076 7.07947 11.2641L6.72858 12.7003L7.58771 12.919L7.94326 11.4633C9.40827 11.7466 10.5099 11.6323 10.9736 10.2786C11.3473 9.1886 10.955 8.55987 10.1842 8.14987C10.7455 8.01762 11.1684 7.64038 11.2812 6.86114ZM9.31822 9.67335C9.05272 10.7633 7.25639 10.1741 6.67401 10.0263L7.14579 8.09412C7.72817 8.24261 9.5957 8.53661 9.31822 9.67335ZM9.58396 6.84539C9.34171 7.83687 7.8466 7.33313 7.36161 7.20963L7.78934 5.45717C8.27434 5.58066 9.83624 5.81115 9.58396 6.84539Z" fill="white"/>
<g opacity="0.5">
<path d="M22.9459 4.84122C23.5809 4.84122 24.1295 4.95746 24.5906 5.18571C25.0538 5.41621 25.436 5.72671 25.7426 6.1172C26.045 6.50969 26.2702 6.96843 26.4155 7.49418C26.5599 8.02142 26.6323 8.58816 26.6323 9.1949C26.6323 10.1269 26.4652 11.0074 26.1277 11.8374C25.7903 12.6686 25.3325 13.3896 24.7501 14.0046C24.1682 14.6188 23.4811 15.1031 22.6888 15.4608C21.8976 15.8188 21.0375 15.9978 20.114 15.9978C19.9946 15.9978 19.7847 15.9943 19.4881 15.988C19.1915 15.9818 18.8507 15.9505 18.4689 15.8978C18.0848 15.843 17.6786 15.762 17.2496 15.6536C16.8209 15.5471 16.4137 15.3978 16.0303 15.2083L19.459 0.48954L22.5299 0.0032959L21.3023 5.22647C21.5651 5.10547 21.8299 5.01171 22.0941 4.94347C22.3587 4.87622 22.6425 4.84122 22.9459 4.84122ZM20.37 13.5088C20.8325 13.5088 21.2683 13.3926 21.6777 13.1643C22.0883 12.9358 22.4426 12.6273 22.7394 12.2431C23.0362 11.8571 23.2711 11.4224 23.4424 10.9366C23.6137 10.4509 23.7003 9.94414 23.7003 9.4169C23.7003 8.76916 23.5944 8.26392 23.3832 7.89867C23.172 7.53493 22.7813 7.35193 22.2138 7.35193C22.0278 7.35193 21.7883 7.38818 21.4912 7.45293C21.1932 7.52167 20.9264 7.66443 20.6874 7.87917L19.3802 13.4261C19.459 13.4403 19.5287 13.4538 19.5882 13.4666C19.6464 13.4803 19.7108 13.4901 19.7749 13.4968C19.8427 13.5046 19.9202 13.5086 20.014 13.5086C20.1077 13.5086 20.2249 13.5088 20.37 13.5088Z" fill="#666666"/>
<path d="M29.817 15.716H26.8838L29.3609 5.06696H32.3141L29.817 15.716ZM31.2443 3.76948C30.8349 3.76948 30.4637 3.64498 30.1344 3.39548C29.8023 3.14748 29.6379 2.76574 29.6379 2.25125C29.6379 1.96825 29.6942 1.70275 29.8057 1.45226C29.919 1.20226 30.0671 0.987019 30.2525 0.804022C30.4378 0.622525 30.6524 0.477524 30.8961 0.368276C31.1413 0.260778 31.4021 0.207031 31.6801 0.207031C32.0893 0.207031 32.4585 0.33153 32.7891 0.581026C33.1185 0.831772 33.2841 1.21352 33.2841 1.72526C33.2841 2.00925 33.2281 2.27575 33.1155 2.52574C33.0037 2.77574 32.8556 2.99098 32.6702 3.17398C32.4864 3.35573 32.2698 3.50023 32.0266 3.60847C31.7812 3.71772 31.5213 3.76948 31.2443 3.76948Z" fill="#666666"/>
<path d="M34.8839 2.41373L37.9561 1.92749L37.2016 5.06644H40.4919L39.8977 7.5359H36.6273L35.7562 11.2608C35.676 11.5713 35.6304 11.8613 35.6177 12.1308C35.6033 12.4016 35.6368 12.6341 35.7161 12.8298C35.7949 13.0261 35.9366 13.1773 36.1421 13.2843C36.3467 13.3931 36.6396 13.4478 37.0238 13.4478C37.3402 13.4478 37.6485 13.4171 37.9465 13.3561C38.2428 13.2961 38.5431 13.2126 38.847 13.1033L39.0658 15.4123C38.6694 15.5608 38.2401 15.6885 37.7777 15.796C37.3145 15.905 36.7661 15.9575 36.1323 15.9575C35.2211 15.9575 34.5146 15.8193 34.0113 15.544C33.5087 15.2668 33.1534 14.888 32.9407 14.4086C32.731 13.9308 32.6373 13.3801 32.6635 12.7596C32.6906 12.1376 32.7824 11.4838 32.9407 10.7954L34.8839 2.41373Z" fill="#666666"/>
</g>
<path d="M40.3643 11.4636C40.3643 10.5464 40.5096 9.68143 40.8001 8.87169C41.09 8.06121 41.5077 7.35246 42.0497 6.74422C42.5898 6.13898 43.2478 5.65949 44.0222 5.30749C44.793 4.9575 45.6561 4.78101 46.6072 4.78101C47.2026 4.78101 47.7343 4.83851 48.2022 4.95376C48.672 5.07 49.097 5.22025 49.4815 5.40875L48.4699 7.75871C48.2056 7.64921 47.9313 7.55271 47.6477 7.46521C47.3638 7.37596 47.0174 7.33297 46.6075 7.33297C45.6284 7.33297 44.8545 7.67771 44.2784 8.36495C43.7046 9.05269 43.4156 9.97842 43.4156 11.1397C43.4156 11.8279 43.561 12.3844 43.8527 12.8101C44.1429 13.2359 44.679 13.4476 45.4574 13.4476C45.8416 13.4476 46.2123 13.4066 46.5674 13.3266C46.9251 13.2456 47.241 13.1436 47.5192 13.0231L47.7382 15.4321C47.3673 15.5791 46.9581 15.7118 46.5094 15.8281C46.0596 15.9403 45.5242 15.9986 44.9034 15.9986C44.0839 15.9986 43.3902 15.8761 42.8227 15.6348C42.255 15.3898 41.786 15.0646 41.4165 14.6526C41.045 14.2396 40.7783 13.7574 40.6134 13.2039C40.4484 12.6509 40.3643 12.0699 40.3643 11.4636Z" fill="#666666"/>
<path d="M53.3939 15.9986C52.6938 15.9986 52.0857 15.8896 51.5699 15.6738C51.0556 15.4581 50.6295 15.1553 50.2926 14.7629C49.9552 14.3724 49.7026 13.9096 49.5296 13.3764C49.3566 12.8434 49.2734 12.2531 49.2734 11.6064C49.2734 10.7952 49.4009 9.98417 49.6586 9.17544C49.915 8.36495 50.2955 7.63671 50.7991 6.98947C51.2988 6.34124 51.9152 5.81124 52.641 5.39799C53.366 4.9875 54.1999 4.78101 55.1367 4.78101C55.824 4.78101 56.4289 4.89025 56.9518 5.106C57.4723 5.32124 57.901 5.62649 58.2399 6.01699C58.5752 6.40948 58.8299 6.87023 59.0012 7.40422C59.1737 7.93621 59.2588 8.52795 59.2588 9.17519C59.2588 9.98392 59.1331 10.7949 58.8835 11.6061C58.6336 12.4134 58.2629 13.1434 57.7735 13.7921C57.2851 14.4394 56.6743 14.9691 55.9407 15.3806C55.2081 15.7921 54.3585 15.9986 53.3939 15.9986ZM54.8599 7.33322C54.4251 7.33322 54.0406 7.46221 53.7115 7.71696C53.3812 7.9747 53.1037 8.2987 52.88 8.68945C52.6539 9.08194 52.4863 9.50993 52.373 9.97518C52.2607 10.4414 52.2057 10.8822 52.2057 11.3009C52.2057 11.9766 52.3123 12.5029 52.5221 12.8816C52.7347 13.2584 53.1167 13.4479 53.6719 13.4479C54.1082 13.4479 54.4907 13.3199 54.8217 13.0624C55.1501 12.8066 55.4278 12.4824 55.6532 12.0909C55.8778 11.7004 56.0469 11.2712 56.1602 10.8052C56.2711 10.3404 56.3276 9.89718 56.3276 9.47918C56.3276 8.80519 56.2214 8.2777 56.0097 7.89946C55.7983 7.52271 55.4146 7.33322 54.8599 7.33322Z" fill="#666666"/>
<path d="M62.4552 15.716H59.5195L61.9966 5.06696H64.9513L62.4552 15.716ZM63.8803 3.76948C63.4712 3.76948 63.1002 3.64498 62.7713 3.39548C62.441 3.14748 62.2751 2.76574 62.2751 2.25125C62.2751 1.96825 62.3321 1.70275 62.4439 1.45226C62.5557 1.20226 62.7048 0.987019 62.8902 0.804022C63.0745 0.622525 63.2911 0.477524 63.5343 0.368276C63.778 0.260778 64.0389 0.207031 64.3159 0.207031C64.726 0.207031 65.0964 0.33153 65.4263 0.581026C65.7564 0.831772 65.923 1.21352 65.923 1.72526C65.923 2.00925 65.8638 2.27575 65.753 2.52574C65.6421 2.77574 65.4931 2.99098 65.3084 3.17398C65.1224 3.35573 64.9085 3.50023 64.6648 3.60847C64.4191 3.71772 64.1588 3.76948 63.8803 3.76948Z" fill="#666666"/>
<path d="M67.0663 5.55115C67.2889 5.48465 67.5375 5.40466 67.8079 5.31766C68.0793 5.23066 68.3825 5.14966 68.7212 5.07666C69.0561 5.00141 69.4342 4.94041 69.85 4.89316C70.2657 4.84492 70.7394 4.82141 71.2658 4.82141C72.8127 4.82141 73.8791 5.28166 74.4679 6.1994C75.0561 7.11713 75.1579 8.37311 74.7762 9.96508L73.4269 15.715H70.4744L71.7821 10.0861C71.8619 9.73459 71.9245 9.39484 71.9708 9.06285C72.0175 8.73385 72.0148 8.44386 71.9602 8.19286C71.9081 7.94487 71.7853 7.74187 71.5946 7.58462C71.4011 7.42987 71.1087 7.35213 70.712 7.35213C70.3296 7.35213 69.9405 7.39413 69.5433 7.47512L67.6207 15.7147H64.667L67.0663 5.55115Z" fill="#666666"/>
</svg>
