<svg width="27" height="25" viewBox="0 0 27 25" fill="none" xmlns="http://www.w3.org/2000/svg">
<path fill-rule="evenodd" clip-rule="evenodd" d="M2.75 3C2.33579 3 2 3.33579 2 3.75C2 4.16421 2.33579 4.5 2.75 4.5H4.66442L5.02239 5.9319L6.80064 13.0449C5.77331 13.2531 5 14.1612 5 15.25C5 16.4926 6.00736 17.5 7.25 17.5H18.75C19.1642 17.5 19.5 17.1642 19.5 16.75C19.5 16.3358 19.1642 16 18.75 16H7.25C6.83579 16 6.5 15.6642 6.5 15.25C6.5 14.8358 6.83579 14.5 7.25 14.5H7.75H18.75C19.0942 14.5 19.3941 14.2658 19.4776 13.9319L21.4776 5.9319C21.5336 5.70785 21.4833 5.47048 21.3412 5.28844C21.199 5.1064 20.981 5 20.75 5H6.33558L5.97761 3.5681C5.89414 3.23422 5.59415 3 5.25 3H2.75ZM7.75 19C6.7835 19 6 19.7835 6 20.75C6 21.7165 6.7835 22.5 7.75 22.5C8.7165 22.5 9.5 21.7165 9.5 20.75C9.5 19.7835 8.7165 19 7.75 19ZM17.75 19C16.7835 19 16 19.7835 16 20.75C16 21.7165 16.7835 22.5 17.75 22.5C18.7165 22.5 19.5 21.7165 19.5 20.75C19.5 19.7835 18.7165 19 17.75 19Z" fill="black"/>
<circle cx="21.5" cy="5.5" r="5.5" fill="#00C4B3"/>
</svg>
