<svg width="94" height="94" viewBox="0 0 94 94" fill="none" xmlns="http://www.w3.org/2000/svg">
<g id="clock 1" clip-path="url(#clip0_53_5777)">
<g id="Group">
<g id="Group_2">
<path id="Vector" d="M94 47C94 46.429 93.9897 45.8602 93.9697 45.2942C93.0717 20.127 72.3864 0 47 0C21.6136 0 0.92825 20.127 0.0304766 45.2942C0.0102812 45.8602 0 46.429 0 47C0 72.9574 24.1429 92.2944 47 92.2944C70.2712 92.2944 94 72.9574 94 47Z" fill="#395093"/>
<path id="Vector_2" d="M47 90.5887C21.6139 90.5887 0.932289 70.4611 0.0341484 45.2942C0.0137695 45.8608 0 46.4287 0 47C0 72.9574 21.0426 94 47 94C72.9574 94 94 72.9574 94 47C94 46.4287 93.9862 45.8608 93.966 45.2944C93.0677 70.4613 72.3861 90.5887 47 90.5887Z" fill="#3D559D"/>
<path id="Vector_3" d="M86.1823 45.2943C85.2893 24.4257 68.0884 7.78109 46.9999 7.78109C25.9114 7.78109 8.71053 24.4257 7.81753 45.2943C7.79329 45.8599 7.81734 83.7243 46.9999 83.7243C86.1825 83.7243 86.2065 45.8599 86.1823 45.2943Z" fill="white"/>
<path id="Vector_4" d="M47.0002 82.8076C25.9119 82.8076 8.71372 66.1626 7.82036 45.2942C7.79612 45.8601 7.78125 46.4281 7.78125 46.9998C7.78125 68.6598 25.3402 86.2188 47.0002 86.2188C68.6602 86.2188 86.2191 68.66 86.2191 47C86.2191 46.4283 86.2041 45.8601 86.18 45.2944C85.2866 66.1628 68.0885 82.8076 47.0002 82.8076Z" fill="#D5E0F2"/>
<path id="Vector_5" d="M61.2455 33.2397C60.1276 32.1372 58.3277 32.1495 57.2254 33.2672L50.5547 40.0302L51.225 43.2499L54.3409 44.288L61.2733 37.2598C62.3755 36.1421 62.3632 34.3421 61.2455 33.2397Z" fill="#405B6C"/>
<path id="Vector_6" d="M42.9757 40.2891L27.8472 26.8075C26.675 25.7628 24.8782 25.8664 23.8337 27.0386C22.7892 28.2107 22.8926 30.0077 24.0648 31.0522L39.4913 44.7993L42.7059 43.7271L42.9757 40.2891Z" fill="#405B6C"/>
<path id="Vector_7" d="M67.1294 65.3295C66.8067 65.3295 66.4825 65.2202 66.2159 64.9964L48.2103 49.8723C47.6094 49.3674 47.5312 48.4708 48.0361 47.8699C48.541 47.2686 49.4374 47.1906 50.0387 47.6956L68.0443 62.8199C68.6452 63.3248 68.7234 64.2215 68.2185 64.8224C67.9374 65.1571 67.5348 65.3295 67.1294 65.3295Z" fill="#86DCFF"/>
<path id="Vector_8" d="M39.4902 44.7993L42.145 47.1651L45.5543 46.0066L45.3695 42.423L42.9748 40.2891C41.3087 41.2903 40.0476 42.8943 39.4902 44.7993Z" fill="#2D4456"/>
<path id="Vector_9" d="M50.5559 40.0304L48.2988 42.3187V46.8105H51.8543L54.3424 44.2881C53.6587 42.4382 52.2951 40.9194 50.5559 40.0304Z" fill="#2D4456"/>
<path id="Vector_10" d="M51.5505 45.294C50.8599 43.4526 49.0832 42.1419 47.0005 42.1419C44.9178 42.1419 43.1412 43.4526 42.4505 45.294C42.2515 45.8248 42.4373 50.1523 47.0005 50.1523C51.5638 50.1523 51.7496 45.8248 51.5505 45.294Z" fill="#395093"/>
<path id="Vector_11" d="M47.0007 48.4467C44.918 48.4467 43.1421 47.1359 42.4514 45.2944C42.2522 45.8252 42.1426 46.3997 42.1426 47C42.1426 49.683 44.3176 51.8579 47.0005 51.8579C49.6835 51.8579 51.8584 49.6829 51.8584 47C51.8584 46.3997 51.7488 45.8252 51.5497 45.2944C50.8593 47.1357 49.0833 48.4467 47.0007 48.4467Z" fill="#3D559D"/>
</g>
<g id="Group_3">
<path id="Vector_12" d="M48.4244 17.1794V12.7682C48.4244 11.9817 47.7868 11.3441 47.0003 11.3441C46.2138 11.3441 45.5762 11.9817 45.5762 12.7682V17.1794C45.5762 17.9659 46.2136 18.6035 47.0003 18.6035C47.787 18.6035 48.4244 17.9659 48.4244 17.1794Z" fill="#405B6C"/>
<path id="Vector_13" d="M45.5762 76.8206V81.2318C45.5762 82.0183 46.2136 82.6559 47.0003 82.6559C47.787 82.6559 48.4244 82.0183 48.4244 81.2318V76.8206C48.4244 76.0341 47.7868 75.3965 47.0003 75.3965C46.2138 75.3965 45.5762 76.0341 45.5762 76.8206Z" fill="#405B6C"/>
<path id="Vector_14" d="M81.2318 48.4241C82.0185 48.4241 82.656 47.7865 82.656 47C82.656 46.2135 82.0183 45.5759 81.2318 45.5759H76.8206C76.0341 45.5759 75.3965 46.2135 75.3965 47C75.3965 47.7865 76.0341 48.4241 76.8206 48.4241H81.2318Z" fill="#405B6C"/>
<path id="Vector_15" d="M12.7679 45.5759C11.9812 45.5759 11.3438 46.2135 11.3438 47C11.3438 47.7865 11.9812 48.4241 12.7679 48.4241H17.1791C17.9658 48.4241 18.6032 47.7865 18.6032 47C18.6032 46.2135 17.9656 45.5759 17.1791 45.5759H12.7679Z" fill="#405B6C"/>
</g>
</g>
</g>
<defs>
<clipPath id="clip0_53_5777">
<rect width="94" height="94" fill="white"/>
</clipPath>
</defs>
</svg>
