<svg width="36" height="23" viewBox="0 0 36 23" fill="none" xmlns="http://www.w3.org/2000/svg">
<path fill-rule="evenodd" clip-rule="evenodd" d="M18.0276 19.7523C16.1305 21.3387 13.6696 22.2964 10.9805 22.2964C4.98027 22.2964 0.116089 17.5281 0.116089 11.646C0.116089 5.76396 4.98027 0.995605 10.9805 0.995605C13.6697 0.995605 16.1307 1.9534 18.0279 3.53998C19.9251 1.95354 22.3859 0.995838 25.075 0.995838C31.0753 0.995838 35.9395 5.76419 35.9395 11.6463C35.9395 17.5283 31.0753 22.2967 25.075 22.2967C22.3858 22.2967 19.9248 21.3389 18.0276 19.7523Z" fill="#ED0006"/>
<path fill-rule="evenodd" clip-rule="evenodd" d="M18.0277 19.7522C20.3637 17.7987 21.845 14.8919 21.845 11.646C21.845 8.4001 20.3637 5.49332 18.0277 3.53984C19.9249 1.95334 22.3858 0.995605 25.0749 0.995605C31.0752 0.995605 35.9394 5.76396 35.9394 11.646C35.9394 17.5281 31.0752 22.2964 25.0749 22.2964C22.3858 22.2964 19.9249 21.3387 18.0277 19.7522Z" fill="#F9A000"/>
<path fill-rule="evenodd" clip-rule="evenodd" d="M18.0278 19.7523C20.3638 17.7988 21.845 14.8921 21.845 11.6462C21.845 8.40028 20.3638 5.49352 18.0278 3.54004C15.6918 5.49352 14.2106 8.40028 14.2106 11.6462C14.2106 14.8921 15.6918 17.7988 18.0278 19.7523Z" fill="#FF5E00"/>
</svg>
