<svg width="76" height="52" viewBox="0 0 76 52" fill="none" xmlns="http://www.w3.org/2000/svg">
<rect x="0.5" y="0.5" width="75" height="51" rx="5.5" fill="white"/>
<path fill-rule="evenodd" clip-rule="evenodd" d="M37.5174 36.4639C34.9315 38.6264 31.5772 39.9318 27.9119 39.9318C19.7335 39.9318 13.1035 33.4324 13.1035 25.4151C13.1035 17.3978 19.7335 10.8984 27.9119 10.8984C31.5772 10.8984 34.9315 12.2039 37.5174 14.3663C40.1032 12.2039 43.4575 10.8984 47.1228 10.8984C55.3013 10.8984 61.9312 17.3978 61.9312 25.4151C61.9312 33.4324 55.3013 39.9318 47.1228 39.9318C43.4575 39.9318 40.1032 38.6264 37.5174 36.4639Z" fill="#ED0006"/>
<path fill-rule="evenodd" clip-rule="evenodd" d="M37.5176 36.4639C40.7016 33.8013 42.7205 29.8393 42.7205 25.4151C42.7205 20.9909 40.7016 17.0289 37.5176 14.3663C40.1034 12.2038 43.4577 10.8984 47.123 10.8984C55.3015 10.8984 61.9314 17.3978 61.9314 25.4151C61.9314 33.4324 55.3015 39.9318 47.123 39.9318C43.4577 39.9318 40.1034 38.6264 37.5176 36.4639Z" fill="#F9A000"/>
<path fill-rule="evenodd" clip-rule="evenodd" d="M37.5173 36.4638C40.7013 33.8011 42.7202 29.8392 42.7202 25.415C42.7202 20.9908 40.7013 17.0288 37.5173 14.3662C34.3334 17.0288 32.3145 20.9908 32.3145 25.415C32.3145 29.8392 34.3334 33.8011 37.5173 36.4638Z" fill="#FF5E00"/>
<rect x="0.5" y="0.5" width="75" height="51" rx="5.5" stroke="#F2F4F7"/>
</svg>
