<svg width="75" height="52" viewBox="0 0 75 52" fill="none" xmlns="http://www.w3.org/2000/svg">
<rect x="0.5" y="0.5" width="74" height="51" rx="5.5" fill="white"/>
<path fill-rule="evenodd" clip-rule="evenodd" d="M20.6995 18.0767C20.0629 18.8391 19.0445 19.4405 18.0261 19.3546C17.8988 18.3237 18.3974 17.2283 18.9809 16.5518C19.6174 15.7679 20.7313 15.2095 21.633 15.1665C21.7391 16.2404 21.3254 17.2928 20.6995 18.0767ZM21.6223 19.5586C20.7251 19.5063 19.9064 19.8317 19.2452 20.0946C18.8196 20.2637 18.4593 20.407 18.1851 20.407C17.8775 20.407 17.5022 20.2561 17.0809 20.0867C16.5289 19.8647 15.8978 19.6109 15.2359 19.623C13.7189 19.6445 12.3079 20.5143 11.5335 21.8996C9.94218 24.6702 11.1197 28.7724 12.658 31.0275C13.4112 32.1443 14.313 33.3685 15.5011 33.3256C16.0239 33.3056 16.3999 33.1441 16.789 32.9769C17.237 32.7845 17.7024 32.5846 18.4291 32.5846C19.1306 32.5846 19.5757 32.7793 20.0029 32.9662C20.4091 33.1439 20.7992 33.3145 21.3783 33.3041C22.6089 33.2826 23.3834 32.1873 24.1366 31.0704C24.9494 29.8718 25.3066 28.702 25.3608 28.5244L25.3672 28.5039C25.3659 28.5026 25.3559 28.4979 25.3381 28.4897C25.0664 28.3638 22.9896 27.4014 22.9696 24.8205C22.9496 22.6543 24.6169 21.5568 24.8794 21.384C24.8954 21.3735 24.9062 21.3664 24.911 21.3627C23.8502 19.7734 22.1952 19.6016 21.6223 19.5586ZM30.1412 33.186V16.4444H36.3473C39.5511 16.4444 41.7895 18.678 41.7895 21.9426C41.7895 25.2071 39.5087 27.4623 36.2624 27.4623H32.7085V33.186H30.1412ZM32.7083 18.6351H35.6681C37.8959 18.6351 39.169 19.8378 39.169 21.9533C39.169 24.0688 37.8959 25.2823 35.6575 25.2823H32.7083V18.6351ZM50.266 31.1778C49.587 32.4879 48.0912 33.3148 46.4787 33.3148C44.0917 33.3148 42.4262 31.8758 42.4262 29.7066C42.4262 27.5589 44.0387 26.324 47.0197 26.1414L50.2236 25.9481V25.0246C50.2236 23.6608 49.343 22.9198 47.7729 22.9198C46.4787 22.9198 45.5345 23.5964 45.3436 24.6273H43.0309C43.1051 22.4581 45.1208 20.8795 47.8472 20.8795C50.7858 20.8795 52.6954 22.4366 52.6954 24.8528V33.186H50.319V31.1778H50.266ZM47.1681 31.3282C45.7995 31.3282 44.9296 30.6624 44.9296 29.6422C44.9296 28.5898 45.7677 27.9777 47.3696 27.8811L50.2234 27.6985V28.6435C50.2234 30.2113 48.9079 31.3282 47.1681 31.3282ZM60.5775 33.841C59.5485 36.7727 58.3709 37.7392 55.8673 37.7392C55.6763 37.7392 55.0398 37.7177 54.8913 37.6747V35.6666C55.0504 35.6881 55.4429 35.7096 55.6445 35.7096C56.7796 35.7096 57.4161 35.2263 57.8087 33.9699L58.042 33.2289L53.6925 21.0406H56.3765L59.4 30.9309H59.453L62.4765 21.0406H65.0862L60.5775 33.841Z" fill="black"/>
<rect x="0.5" y="0.5" width="74" height="51" rx="5.5" stroke="#F2F4F7"/>
</svg>
