<svg width="76" height="52" viewBox="0 0 76 52" fill="none" xmlns="http://www.w3.org/2000/svg">
<rect x="0.5" y="0.5" width="75" height="51" rx="5.5" fill="white"/>
<path fill-rule="evenodd" clip-rule="evenodd" d="M31.9162 39.9711L32.3983 36.8314L31.3245 36.8057H26.1968L29.7603 13.6362C29.7714 13.566 29.8073 13.5009 29.8597 13.4546C29.9124 13.4082 29.9795 13.3828 30.0498 13.3828H38.6958C41.5664 13.3828 43.5472 13.9952 44.5813 15.2041C45.0662 15.7712 45.375 16.364 45.5244 17.016C45.6812 17.7004 45.6837 18.518 45.5309 19.5153L45.5198 19.5879V20.227L46.0047 20.5087C46.4129 20.7308 46.7374 20.985 46.9863 21.276C47.401 21.761 47.6692 22.3773 47.7826 23.1078C47.8998 23.8592 47.8611 24.7535 47.6692 25.7659C47.448 26.9303 47.0904 27.9446 46.6073 28.7744C46.1632 29.539 45.5973 30.1733 44.9252 30.6647C44.2836 31.1317 43.5214 31.4862 42.6596 31.7131C41.8243 31.9361 40.8721 32.0486 39.8277 32.0486H39.1549C38.6739 32.0486 38.2065 32.2262 37.8396 32.5447C37.4717 32.8699 37.2285 33.3141 37.1539 33.7999L37.103 34.0827L36.2513 39.6169L36.2128 39.8199C36.2025 39.8843 36.1849 39.9163 36.1591 39.938C36.1361 39.9579 36.1031 39.9711 36.0708 39.9711H31.9162Z" fill="#28356A"/>
<path fill-rule="evenodd" clip-rule="evenodd" d="M46.4643 19.6616C46.4388 19.8308 46.4091 20.0037 46.376 20.1813C45.2359 26.1844 41.3348 28.2582 36.3528 28.2582H33.8161C33.2067 28.2582 32.6932 28.7117 32.5984 29.3281L30.9318 40.1685C30.8701 40.5733 31.1742 40.9379 31.5724 40.9379H36.0716C36.6043 40.9379 37.0569 40.541 37.1408 40.0022L37.1849 39.7679L38.0321 34.2555L38.0865 33.9531C38.1694 33.4125 38.6231 33.0153 39.1557 33.0153H39.8286C44.1876 33.0153 47.6001 31.2007 48.5975 25.949C49.014 23.7553 48.7984 21.9234 47.6959 20.6351C47.3623 20.2467 46.9484 19.9243 46.4643 19.6616Z" fill="#298FC2"/>
<path fill-rule="evenodd" clip-rule="evenodd" d="M45.271 19.174C45.0967 19.1219 44.917 19.0747 44.7326 19.0321C44.5473 18.9906 44.3575 18.9538 44.162 18.9215C43.4781 18.8081 42.7286 18.7544 41.9258 18.7544H35.1491C34.9821 18.7544 34.8235 18.793 34.6818 18.8629C34.3691 19.017 34.137 19.3204 34.0807 19.6919L32.639 29.0552L32.5977 29.3282C32.6924 28.7118 33.206 28.2583 33.8153 28.2583H36.352C41.3341 28.2583 45.2351 26.1834 46.3753 20.1814C46.4093 20.0038 46.438 19.8309 46.4636 19.6617C46.1752 19.5047 45.8627 19.3705 45.5263 19.2561C45.4432 19.2278 45.3575 19.2005 45.271 19.174Z" fill="#22284F"/>
<path fill-rule="evenodd" clip-rule="evenodd" d="M34.0811 19.6921C34.1373 19.3206 34.3695 19.0172 34.6821 18.8642C34.8249 18.794 34.9824 18.7554 35.1494 18.7554H41.9262C42.7289 18.7554 43.4784 18.8094 44.1624 18.9227C44.3578 18.9548 44.5476 18.9918 44.733 19.0334C44.9173 19.0757 45.097 19.1231 45.2713 19.175C45.3578 19.2015 45.4435 19.229 45.5274 19.2563C45.8639 19.3707 46.1765 19.506 46.4649 19.6619C46.8042 17.4435 46.4621 15.9331 45.2925 14.5654C44.0028 13.0595 41.6755 12.415 38.6973 12.415H30.0509C29.4426 12.415 28.9237 12.8686 28.8297 13.486L25.2285 36.8938C25.1575 37.3568 25.5058 37.7746 25.9612 37.7746H31.299L34.0811 19.6921Z" fill="#28356A"/>
<rect x="0.5" y="0.5" width="75" height="51" rx="5.5" stroke="#F2F4F7"/>
</svg>
