<svg width="18" height="22" viewBox="0 0 18 22" fill="none" xmlns="http://www.w3.org/2000/svg">
<path fill-rule="evenodd" clip-rule="evenodd" d="M5.15443 20.3254L5.50809 18.0218L4.72026 18.003H0.958252L3.57272 1.00425C3.58086 0.952775 3.60719 0.904992 3.64565 0.870999C3.68429 0.837007 3.73354 0.818359 3.78507 0.818359H10.1284C12.2344 0.818359 13.6877 1.26764 14.4464 2.15455C14.8021 2.57062 15.0287 3.00553 15.1383 3.48395C15.2533 3.98607 15.2552 4.58589 15.1431 5.3176L15.1349 5.37082V5.83972L15.4907 6.0464C15.7902 6.20937 16.0283 6.39584 16.2109 6.60931C16.5151 6.96516 16.7119 7.41736 16.7951 7.95327C16.8811 8.50453 16.8527 9.16069 16.7119 9.90347C16.5496 10.7577 16.2872 11.5019 15.9328 12.1106C15.607 12.6716 15.1918 13.137 14.6987 13.4975C14.228 13.8402 13.6688 14.1003 13.0365 14.2667C12.4237 14.4303 11.7251 14.5128 10.9588 14.5128H10.4652C10.1123 14.5128 9.76943 14.6432 9.50026 14.8769C9.23032 15.1154 9.05188 15.4413 8.99714 15.7978L8.95982 16.0052L8.3349 20.0655L8.30668 20.2144C8.2991 20.2616 8.28622 20.2851 8.26728 20.3011C8.25042 20.3156 8.22617 20.3254 8.20249 20.3254H5.15443" fill="#28356A"/>
<path fill-rule="evenodd" clip-rule="evenodd" d="M15.8278 5.42529C15.8091 5.54941 15.7873 5.67625 15.7631 5.80659C14.9266 10.2108 12.0645 11.7323 8.40933 11.7323H6.54821C6.10116 11.7323 5.72439 12.0651 5.65487 12.5173L4.43212 20.4705C4.38685 20.7675 4.60999 21.035 4.90209 21.035H8.20304C8.59383 21.035 8.92589 20.7438 8.98746 20.3486L9.01985 20.1766L9.64136 16.1323L9.68133 15.9105C9.74213 15.5139 10.075 15.2225 10.4657 15.2225H10.9594C14.1575 15.2225 16.6611 13.8912 17.3929 10.0382C17.6984 8.42867 17.5403 7.08471 16.7314 6.13952C16.4867 5.85457 16.183 5.61798 15.8278 5.42529" fill="#298FC2"/>
<path fill-rule="evenodd" clip-rule="evenodd" d="M14.9524 5.06715C14.8245 5.02889 14.6927 4.99431 14.5574 4.96304C14.4214 4.93254 14.2822 4.90554 14.1388 4.88184C13.637 4.79871 13.0871 4.75928 12.4982 4.75928H7.52627C7.40371 4.75928 7.28741 4.78764 7.18341 4.83892C6.95401 4.95197 6.78372 5.17457 6.74242 5.44709L5.68467 12.3167L5.65436 12.5169C5.72388 12.0647 6.10065 11.732 6.54769 11.732H8.40881C12.064 11.732 14.926 10.2097 15.7625 5.80624C15.7875 5.67591 15.8086 5.54907 15.8273 5.42495C15.6157 5.30976 15.3865 5.21128 15.1397 5.12737C15.0787 5.10658 15.0158 5.08658 14.9524 5.06715" fill="#22284F"/>
<path fill-rule="evenodd" clip-rule="evenodd" d="M6.74272 5.44735C6.78402 5.17482 6.95431 4.95222 7.18371 4.83995C7.28846 4.78848 7.40401 4.76012 7.52657 4.76012H12.4984C13.0874 4.76012 13.6373 4.79974 14.1391 4.88288C14.2825 4.90638 14.4217 4.93357 14.5577 4.96407C14.693 4.99515 14.8248 5.02992 14.9527 5.06799C15.0161 5.08741 15.079 5.10762 15.1406 5.12762C15.3874 5.21154 15.6168 5.31079 15.8284 5.4252C16.0773 3.79764 15.8263 2.68949 14.9682 1.68604C14.022 0.581185 12.3145 0.108398 10.1295 0.108398H3.78596C3.33967 0.108398 2.95892 0.441136 2.88997 0.894109L0.247851 18.0677C0.195758 18.4074 0.451295 18.7139 0.785443 18.7139H4.70165L6.74272 5.44735" fill="#28356A"/>
</svg>
