<svg width="92" height="92" viewBox="0 0 92 92" fill="none" xmlns="http://www.w3.org/2000/svg">
<path fill-rule="evenodd" clip-rule="evenodd" d="M55.5491 39.4285C58.6157 41.6085 62.2881 42.7733 66.0506 42.7592V35.3024C65.311 35.3045 64.5733 35.2253 63.8509 35.0663V41.0068C60.0799 41.0135 56.4021 39.8354 53.3369 37.6389V52.9749C53.3276 55.4914 52.6375 57.9585 51.3397 60.1146C50.0419 62.2706 48.1849 64.0353 45.9654 65.2215C43.746 66.4076 41.2469 66.9711 38.7332 66.852C36.2195 66.733 33.7849 65.9359 31.6875 64.5453C33.6275 66.5082 36.1064 67.8513 38.8103 68.4044C41.5142 68.9576 44.3213 68.6959 46.8764 67.6526C49.4315 66.6093 51.6194 64.8312 53.1633 62.5436C54.7072 60.256 55.5375 57.5616 55.5491 54.8018V39.4285ZM58.2708 31.8226C56.7113 30.1323 55.7544 27.9739 55.5491 25.6832V24.7139H53.4612C53.7193 26.1699 54.2809 27.5553 55.1095 28.78C55.9381 30.0048 57.0152 31.0414 58.2708 31.8226ZM36.522 58.642C35.7983 57.6957 35.3548 56.5653 35.242 55.3793C35.1292 54.1934 35.3515 52.9996 35.8838 51.9338C36.416 50.8681 37.2368 49.9731 38.2526 49.3508C39.2684 48.7285 40.4386 48.4039 41.6298 48.4139C42.2875 48.4137 42.9413 48.5143 43.5686 48.7121V41.0068C42.8354 40.9097 42.0959 40.8682 41.3564 40.8826V46.8728C39.8292 46.39 38.1762 46.4998 36.7262 47.1803C35.2762 47.8608 34.1355 49.0621 33.5309 50.5454C32.9263 52.0286 32.9022 53.6851 33.4633 55.1853C34.0244 56.6855 35.1297 57.9196 36.5592 58.642H36.522Z" fill="#EE1D52"/>
<path fill-rule="evenodd" clip-rule="evenodd" d="M53.3358 37.5892C56.401 39.7857 60.0788 40.9638 63.8498 40.9571V35.0166C61.7013 34.5623 59.7495 33.4452 58.2697 31.8226C57.0142 31.0414 55.9371 30.0048 55.1084 28.78C54.2798 27.5553 53.7182 26.1699 53.4601 24.7139H47.967V54.8018C47.9619 56.1336 47.5398 57.4304 46.7601 58.51C45.9803 59.5897 44.8821 60.3981 43.6194 60.8217C42.3568 61.2453 40.9932 61.2629 39.7201 60.872C38.4469 60.4811 37.3282 59.7012 36.5209 58.642C35.2415 57.9965 34.2169 56.9387 33.6124 55.6394C33.0079 54.3401 32.8587 52.875 33.189 51.4805C33.5193 50.0861 34.3098 48.8435 35.4329 47.9535C36.556 47.0634 37.9462 46.5776 39.3793 46.5745C40.0368 46.5766 40.6903 46.6772 41.318 46.8728V40.8826C38.6058 40.9477 35.9715 41.8033 33.7387 43.3444C31.5058 44.8855 29.7715 47.0451 28.7487 49.5579C27.7259 52.0708 27.459 54.8276 27.9809 57.49C28.5027 60.1524 29.7906 62.6045 31.6864 64.5453C33.7843 65.9459 36.2227 66.7512 38.7421 66.8755C41.2614 66.9997 43.7673 66.4383 45.9928 65.2509C48.2183 64.0636 50.08 62.2948 51.3797 60.133C52.6794 57.9712 53.3683 55.4973 53.3731 52.9749L53.3358 37.5892Z" fill="black"/>
<path fill-rule="evenodd" clip-rule="evenodd" d="M63.8505 35.0161V33.4129C61.8774 33.4213 59.9425 32.8696 58.2704 31.8221C59.7465 33.4493 61.6999 34.5674 63.8505 35.0161ZM53.4608 24.7134C53.4608 24.4275 53.3738 24.1292 53.3365 23.8434V22.874H45.7555V52.9744C45.7489 54.6598 45.0739 56.2738 43.8786 57.4621C42.6833 58.6504 41.0654 59.3159 39.38 59.3126C38.3876 59.3176 37.4081 59.0876 36.5216 58.6415C37.3289 59.7007 38.4476 60.4805 39.7208 60.8715C40.9939 61.2624 42.3575 61.2448 43.6201 60.8212C44.8828 60.3976 45.981 59.5892 46.7608 58.5095C47.5405 57.4298 47.9626 56.1331 47.9677 54.8013V24.7134H53.4608ZM41.3187 40.8696V39.167C38.1992 38.7432 35.0281 39.3885 32.3222 40.9977C29.6164 42.6069 27.5353 45.0851 26.4183 48.0284C25.3012 50.9718 25.2139 54.2067 26.1707 57.206C27.1275 60.2053 29.072 62.792 31.6871 64.5448C29.8057 62.5995 28.5315 60.1484 28.0203 57.4908C27.5091 54.8333 27.7829 52.0844 28.8085 49.5799C29.834 47.0755 31.5667 44.924 33.795 43.3882C36.0232 41.8524 38.6506 40.9988 41.356 40.9318L41.3187 40.8696Z" fill="#69C9D0"/>
</svg>
