<svg width="39" height="14" viewBox="0 0 39 14" fill="none" xmlns="http://www.w3.org/2000/svg">
<path fill-rule="evenodd" clip-rule="evenodd" d="M9.99809 13.2086H6.74126L4.29904 3.56618C4.18312 3.12263 3.937 2.7305 3.57495 2.54569C2.67142 2.08125 1.6758 1.71162 0.589661 1.5252V1.15397H5.83615C6.56024 1.15397 7.10331 1.71162 7.19382 2.35927L8.46098 9.31465L11.7162 1.15397H14.8825L9.99809 13.2086ZM16.6928 13.2086H13.617L16.1497 1.15397H19.2255L16.6928 13.2086ZM23.2048 4.49349C23.2953 3.84423 23.8384 3.473 24.472 3.473C25.4676 3.37979 26.5522 3.56621 27.4573 4.02904L28.0004 1.43363C27.0952 1.0624 26.0996 0.875977 25.1961 0.875977C22.2108 0.875977 20.0385 2.54572 20.0385 4.86311C20.0385 6.62606 21.5772 7.55173 22.6634 8.10939C23.8384 8.66543 24.291 9.03667 24.2005 9.59271C24.2005 10.4268 23.2953 10.798 22.3918 10.798C21.3057 10.798 20.2195 10.52 19.2255 10.0555L18.6824 12.6526C19.7686 13.1154 20.9436 13.3018 22.0298 13.3018C25.3771 13.3934 27.4573 11.7253 27.4573 9.22148C27.4573 6.06841 23.2048 5.8836 23.2048 4.49349V4.49349ZM38.2218 13.2086L35.7796 1.15397H33.1563C32.6133 1.15397 32.0702 1.5252 31.8892 2.08125L27.3668 13.2086H30.5331L31.1651 11.4472H35.0555L35.4175 13.2086H38.2218ZM33.6089 4.40031L34.5124 8.94349H31.9797L33.6089 4.40031Z" fill="#172B85"/>
</svg>
